<svg xmlns="http://www.w3.org/2000/svg" version="1.1" xmlns:xlink="http://www.w3.org/1999/xlink" xmlns:svgjs="http://svgjs.dev/svgjs" width="1500" height="299" viewBox="0 0 1500 299"><g transform="matrix(1,0,0,1,-0.9090909090909918,-0.7668133363092977)"><svg viewBox="0 0 396 79" data-background-color="#ffffff" preserveAspectRatio="xMidYMid meet" height="299" width="1500" xmlns="http://www.w3.org/2000/svg" xmlns:xlink="http://www.w3.org/1999/xlink"><g id="tight-bounds" transform="matrix(1,0,0,1,0.2400000000000091,0.20260285474392958)"><svg viewBox="0 0 395.52 78.59479429051217" height="78.59479429051217" width="395.52"><g><svg viewBox="0 0 395.52 78.59479429051217" height="78.59479429051217" width="395.52"><g><svg viewBox="0 0 395.52 78.59479429051217" height="78.59479429051217" width="395.52"><g id="textblocktransform"><svg viewBox="0 0 395.52 78.59479429051217" height="78.59479429051217" width="395.52" id="textblock"><g><svg viewBox="0 0 395.52 78.59479429051217" height="78.59479429051217" width="395.52"><g transform="matrix(1,0,0,1,0,0)"><svg width="395.52" viewBox="1.7 -34.9 178.64000000000001 35.5" height="78.59479429051217" data-palette-color="#000000"><path d="M16.15 0.6Q1.7 0.6 1.7-12.8L1.7-12.8Q1.7-18.3 3.53-23.1 5.35-27.9 9-30.95L9-30.95Q11.3-32.85 14.38-33.88 17.45-34.9 21.15-34.9L21.15-34.9Q27.45-34.9 31.3-32.2 35.15-29.5 35.15-24.3L35.15-24.3Q35.15-23.15 34.9-21.55L34.9-21.55 27.45-21.55Q27.6-22.3 27.6-23.05L27.6-23.05Q27.6-25.85 25.78-27.3 23.95-28.75 20.9-28.75L20.9-28.75Q16.3-28.75 13.48-25.88 10.65-23 9.75-17.9L9.75-17.9Q9.15-14.6 9.15-13L9.15-13Q9.15-5.55 16.4-5.55L16.4-5.55Q20.25-5.55 22.88-7.45 25.5-9.35 26.15-12.7L26.15-12.7 33.35-12.7Q32.6-8.3 30.15-5.33 27.7-2.35 24.08-0.88 20.45 0.6 16.15 0.6L16.15 0.6ZM45.55 0.6Q41.6 0.6 39.27-2.08 36.95-4.75 36.95-9.8L36.95-9.8Q36.95-13.65 38.2-17.6 39.45-21.55 42.1-24.23 44.75-26.9 48.7-26.9L48.7-26.9Q51.35-26.9 53.15-25.98 54.95-25.05 56.15-23.25L56.15-23.25 56.45-23.25 58-26.3 63.8-26.3 62.65-19.9 61.85-15.55Q60.3-6.95 60.3-6.35L60.3-6.35Q60.3-5.7 60.72-5.35 61.15-5 61.75-5L61.75-5 63.2-5 62.35-0.2Q60.65 0.6 58.25 0.6L58.25 0.6Q56.05 0.6 54.82-0.43 53.6-1.45 53.65-3.45L53.65-3.45 53.35-3.45Q51.95-1.5 49.9-0.45 47.85 0.6 45.55 0.6L45.55 0.6ZM48.2-5.35Q50.55-5.35 52.07-7.15 53.6-8.95 54.27-11.45 54.95-13.95 54.95-16.1L54.95-16.1Q54.95-21.15 50.75-21.15L50.75-21.15Q48.25-21.15 46.75-19.33 45.25-17.5 44.65-15 44.05-12.5 44.05-10.2L44.05-10.2Q44.05-5.35 48.2-5.35L48.2-5.35ZM66.5 0L71.15-26.3 76.9-26.3 76.9-22.75 77.25-22.75Q78.7-24.55 81.02-25.73 83.35-26.9 85.9-26.9L85.9-26.9Q89.2-26.9 91.3-25.2 93.4-23.5 93.4-19.9L93.4-19.9Q93.4-18.3 92.9-15.65L92.9-15.65 90.1 0 83.25 0 85.95-15.2Q86.25-17 86.25-17.6L86.25-17.6Q86.25-20.85 82.9-20.85L82.9-20.85Q80.25-20.85 78.32-19 76.4-17.15 75.8-13.7L75.8-13.7 73.35 0 66.5 0ZM103.69 0L98.54-26.3 105.39-26.3 107.49-15Q107.89-13.05 108.54-7.1L108.54-7.1 108.79-7.1Q110.94-12.75 112.14-15L112.14-15 118.19-26.3 125.44-26.3 110.94 0 103.69 0ZM133.34 0.6Q130.04 0.6 127.92-1.1 125.79-2.8 125.79-6.4L125.79-6.4Q125.79-7.7 126.34-10.65L126.34-10.65 129.14-26.3 135.99-26.3 133.29-11.1Q132.99-9.3 132.99-8.7L132.99-8.7Q132.99-5.45 136.34-5.45L136.34-5.45Q138.99-5.45 140.92-7.3 142.84-9.15 143.44-12.6L143.44-12.6 145.89-26.3 152.74-26.3 148.09 0 142.34 0 142.34-3.55 141.99-3.55Q140.54-1.75 138.22-0.58 135.89 0.6 133.34 0.6L133.34 0.6ZM166.39 0.6Q160.94 0.6 157.94-1.28 154.94-3.15 154.94-6.4L154.94-6.4Q154.94-7.5 155.29-8.35L155.29-8.35 161.94-8.35Q161.79-8 161.79-7.6L161.79-7.6Q161.79-6.1 163.16-5.4 164.54-4.7 166.59-4.7L166.59-4.7Q168.79-4.7 170.39-5.33 171.99-5.95 171.99-7.4L171.99-7.4Q171.99-8.65 170.66-9.28 169.34-9.9 166.44-10.7L166.44-10.7Q163.64-11.4 161.84-12.1 160.04-12.8 158.74-14.2 157.44-15.6 157.44-17.85L157.44-17.85Q157.44-22.2 160.84-24.55 164.24-26.9 169.54-26.9L169.54-26.9Q174.34-26.9 177.34-25.28 180.34-23.65 180.34-20.8L180.34-20.8Q180.34-19.7 179.99-18.6L179.99-18.6 173.34-18.6 173.39-19.1Q173.39-20.35 172.31-20.98 171.24-21.6 169.34-21.6L169.34-21.6Q167.14-21.6 165.81-20.98 164.49-20.35 164.49-19.2L164.49-19.2Q164.49-18.1 165.79-17.5 167.09-16.9 169.79-16.3L169.79-16.3Q172.64-15.65 174.51-14.95 176.39-14.25 177.74-12.83 179.09-11.4 179.09-9L179.09-9Q179.09-3.95 175.49-1.68 171.89 0.6 166.39 0.6L166.39 0.6Z" opacity="1" transform="matrix(1,0,0,1,0,0)" fill="#000000" class="wordmark-text-0" data-fill-palette-color="primary" id="text-0"></path></svg></g></svg></g></svg></g></svg></g></svg></g><defs></defs></svg><rect width="395.52" height="78.59479429051217" fill="none" stroke="none" visibility="hidden"></rect></g></svg></g></svg>